<?xml version="1.0" encoding="utf-8"?>
<!-- Generator: Adobe Illustrator 25.3.1, SVG Export Plug-In . SVG Version: 6.00 Build 0)  -->
<svg version="1.1" id="图层_1" xmlns="http://www.w3.org/2000/svg" xmlns:xlink="http://www.w3.org/1999/xlink" x="0px" y="0px"
	 viewBox="0 0 24 24" style="enable-background:new 0 0 24 24;" xml:space="preserve">
<style type="text/css">
	.st0{fill:none;stroke:#333333;stroke-width:2;stroke-miterlimit:2;}
</style>
<path class="st0" d="M12,22c5.5,0,10-4.5,10-10S17.5,2,12,2S2,6.5,2,12c0,1.4,0.3,2.6,0.8,3.8C3,16.4,3.3,17,3.7,17.6
	C3.8,17.7,3.6,18.9,3,21c2.1-0.6,3.3-0.8,3.4-0.7C7,20.7,7.6,21,8.2,21.2C9.4,21.7,10.6,22,12,22z"/>
<line class="st0" x1="9.5" y1="8.4" x2="9.5" y2="11.1"/>
<path class="st0" d="M7.5,12.1c0,4.7,9.1,4.5,9.1,0"/>
<line class="st0" x1="14.1" y1="8.4" x2="14.1" y2="11.1"/>
</svg>
